<svg xmlns="http://www.w3.org/2000/svg" width="646.8" height="497.2" font-family="Segoe UI,Arial,sans-serif">
<rect width="646.8" height="497.2" fill="#F4F6FA"/>
<rect x="0" y="0" width="646.8" height="37.0" fill="#0A4E97"/>
<rect x="0" y="35.7" width="646.8" height="1.3" fill="#1976D2"/>
<text x="8.4" y="19.7" font-size="13" font-weight="bold" fill="white">Pilotage Commercial</text>
<rect x="117.6" y="9.2" width="33.6" height="17.6" rx="4" fill="#FFFFFF22"/>
<text x="134.4" y="19.7" font-size="8" font-weight="normal" fill="white" text-anchor="middle">Accueil</text>
<rect x="153.3" y="9.2" width="46.2" height="17.6" rx="4" fill="#FFFFFF22"/>
<text x="176.4" y="19.7" font-size="8" font-weight="normal" fill="white" text-anchor="middle">Performance</text>
<rect x="201.6" y="9.2" width="33.6" height="17.6" rx="4" fill="#FFFFFF22"/>
<text x="218.4" y="19.7" font-size="8" font-weight="normal" fill="white" text-anchor="middle">Affaires</text>
<rect x="237.3" y="9.2" width="46.2" height="17.6" rx="4" fill="#FFFFFF22"/>
<text x="260.4" y="19.7" font-size="8" font-weight="normal" fill="white" text-anchor="middle">Réseau MIA</text>
<rect x="285.6" y="9.2" width="50.4" height="17.6" rx="4" fill="#FFFFFF"/>
<text x="310.8" y="19.7" font-size="8" font-weight="bold" fill="#0A4E97" text-anchor="middle">Rendez-vous</text>
<rect x="338.1" y="9.2" width="33.6" height="17.6" rx="4" fill="#FFFFFF22"/>
<text x="354.9" y="19.7" font-size="8" font-weight="normal" fill="white" text-anchor="middle">Alertes</text>
<rect x="373.8" y="9.2" width="37.8" height="17.6" rx="4" fill="#FFFFFF22"/>
<text x="392.7" y="19.7" font-size="8" font-weight="normal" fill="white" text-anchor="middle">Glossaire</text>
<rect x="525.0" y="8.4" width="113.4" height="17.6" rx="4" fill="#E8EEF8" stroke="#A0B4D0" stroke-width="1"/>
<text x="581.7" y="18.9" font-size="8" fill="#555" text-anchor="middle">▼ Agence</text>
<rect x="8.4" y="42.0" width="630.0" height="50.4" rx="6" fill="#1565C0"/>
<text x="16.8" y="55.9" font-size="17" font-weight="bold" fill="white">Rendez-vous</text>
<text x="16.8" y="68.0" font-size="9" fill="#B8D4F0">Suivi des rendez-vous prévus, réalisés et taux de réalisation</text>
<rect x="8.4" y="100.8" width="75.6" height="16.8" rx="4" fill="#E8EEF8" stroke="#A0B4D0" stroke-width="1"/>
<text x="46.2" y="110.9" font-size="8" fill="#333" text-anchor="middle">▼ Agence</text>
<rect x="90.3" y="100.8" width="75.6" height="16.8" rx="4" fill="#E8EEF8" stroke="#A0B4D0" stroke-width="1"/>
<text x="128.1" y="110.9" font-size="8" fill="#333" text-anchor="middle">▼ Axe RDV</text>
<rect x="172.2" y="100.8" width="75.6" height="16.8" rx="4" fill="#E8EEF8" stroke="#A0B4D0" stroke-width="1"/>
<text x="210.0" y="110.9" font-size="8" fill="#333" text-anchor="middle">▼ Période</text>
<rect x="254.1" y="100.8" width="94.1" height="16.8" rx="4" fill="#E8EEF8" stroke="#A0B4D0" stroke-width="1"/>
<text x="301.1" y="110.9" font-size="8" fill="#333" text-anchor="middle">▼ Axe Organisation</text>
<rect x="354.5" y="100.8" width="88.2" height="16.8" rx="4" fill="#E8EEF8" stroke="#A0B4D0" stroke-width="1"/>
<text x="398.6" y="110.9" font-size="8" fill="#333" text-anchor="middle">▼ Axe RDV (comp.)</text>
<rect x="14.3" y="141.5" width="112.1" height="60.1" rx="6" fill="white" stroke="#D0DCF0" stroke-width="1"/>
<text x="70.6" y="153.3" font-size="7" fill="#888" text-anchor="middle">G.15</text>
<text x="70.6" y="163.0" font-size="9" font-weight="bold" fill="#0A4E97" text-anchor="middle">Nb RDV</text>
<text x="70.6" y="168.8" font-size="9" font-weight="bold" fill="#0A4E97" text-anchor="middle">réalisés</text>
<text x="70.6" y="189.0" font-size="18" font-weight="bold" fill="#1A1A2E" text-anchor="middle">—</text>
<rect x="139.0" y="141.5" width="112.1" height="60.1" rx="6" fill="white" stroke="#D0DCF0" stroke-width="1"/>
<text x="195.3" y="153.3" font-size="7" fill="#888" text-anchor="middle">G.14</text>
<text x="195.3" y="163.0" font-size="9" font-weight="bold" fill="#0A4E97" text-anchor="middle">Nb RDV</text>
<text x="195.3" y="168.8" font-size="9" font-weight="bold" fill="#0A4E97" text-anchor="middle">prévus</text>
<text x="195.3" y="189.0" font-size="18" font-weight="bold" fill="#1A1A2E" text-anchor="middle">—</text>
<rect x="263.8" y="141.5" width="112.1" height="60.1" rx="6" fill="white" stroke="#D0DCF0" stroke-width="1"/>
<text x="320.0" y="153.3" font-size="7" fill="#888" text-anchor="middle">G.14c</text>
<text x="320.0" y="163.0" font-size="9" font-weight="bold" fill="#0A4E97" text-anchor="middle">Nb RDV</text>
<text x="320.0" y="168.8" font-size="9" font-weight="bold" fill="#0A4E97" text-anchor="middle">confirmés</text>
<text x="320.0" y="189.0" font-size="18" font-weight="bold" fill="#1A1A2E" text-anchor="middle">—</text>
<rect x="388.5" y="141.5" width="112.1" height="60.1" rx="6" fill="white" stroke="#D0DCF0" stroke-width="1"/>
<text x="444.8" y="153.3" font-size="7" fill="#888" text-anchor="middle">G.13</text>
<text x="444.8" y="163.0" font-size="9" font-weight="bold" fill="#0A4E97" text-anchor="middle">Taux réalisation</text>
<text x="444.8" y="168.8" font-size="9" font-weight="bold" fill="#0A4E97" text-anchor="middle">RDV</text>
<text x="444.8" y="189.0" font-size="18" font-weight="bold" fill="#1A1A2E" text-anchor="middle">—</text>
<rect x="513.2" y="141.5" width="112.1" height="60.1" rx="6" fill="white" stroke="#D0DCF0" stroke-width="1"/>
<text x="569.5" y="153.3" font-size="7" fill="#888" text-anchor="middle">G.18</text>
<text x="569.5" y="163.0" font-size="9" font-weight="bold" fill="#0A4E97" text-anchor="middle">Taux RDV</text>
<text x="569.5" y="168.8" font-size="9" font-weight="bold" fill="#0A4E97" text-anchor="middle">visioconférence</text>
<text x="569.5" y="189.0" font-size="18" font-weight="bold" fill="#1A1A2E" text-anchor="middle">—</text>
<rect x="8.4" y="211.7" width="205.8" height="142.8" rx="6" fill="#E3ECF8" stroke="#4A7EC7" stroke-width="1.5"/>
<text x="111.3" y="279.7" font-size="12" text-anchor="middle">📊 Barres</text>
<text x="111.3" y="287.3" font-size="8" fill="#333" text-anchor="middle">Nb RDV réalisés par type</text>
<rect x="220.5" y="211.7" width="415.8" height="142.8" rx="6" fill="#E3ECF8" stroke="#4A7EC7" stroke-width="1.5"/>
<text x="428.4" y="279.7" font-size="12" text-anchor="middle">📈 Courbe</text>
<text x="428.4" y="287.3" font-size="8" fill="#333" text-anchor="middle">Évolution mensuelle RDV</text>
<rect x="8.4" y="360.8" width="621.6" height="84.0" rx="6" fill="#EAF0FA" stroke="#4A7EC7" stroke-width="1.5"/>
<text x="319.2" y="399.4" font-size="12" text-anchor="middle">📋 Pivot</text>
<text x="319.2" y="407.0" font-size="8" fill="#333" text-anchor="middle">Tableau croisé — type × indicateurs</text>
<rect x="8.4" y="459.1" width="621.6" height="33.6" rx="6" fill="#FFF8E1" stroke="#FFC107" stroke-width="1.5"/>
<text x="319.2" y="472.5" font-size="12" text-anchor="middle">📌 Indicateurs</text>
<text x="319.2" y="480.1" font-size="8" fill="#333" text-anchor="middle">RDV hebdo moyen / Taux confirmés / Domicile / Visio</text>
<rect x="0" y="477.2" width="646.8" height="20" fill="#E8EEF8"/>
<text x="323.4" y="491.2" font-size="7" fill="#888" text-anchor="middle">Pilotage Commercial v1.3.3 — Rendez-vous</text>
</svg>